<svg xmlns="http://www.w3.org/2000/svg" viewBox="0 0 40.4 47.39"><g id="Layer_2" data-name="Layer 2"><g id="Layer_1-2" data-name="Layer 1"><g id="VWzbxs.tif"><path d="M36.15,29.42V46.09c0,1.1-.2,1.3-1.29,1.3H5.56c-1.13,0-1.31-.19-1.31-1.33V12.73c0-.82.07-.69-.68-.69H.94c-.76,0-1.08-.44-.88-1.18C.54,9.13,1,7.41,1.49,5.69c.21-.72.41-.87,1.18-.87,3.49,0,7,0,10.47,0,.52,0,.63-.15.61-.63,0-1,0-2.07,0-3.1C13.75.28,14,0,14.82,0H25.55c.84,0,1.1.28,1.11,1.13,0,1.05,0,2.1,0,3.15,0,.42.1.55.54.55,3.47,0,6.94,0,10.42,0,.92,0,1.1.12,1.34,1l1.4,5.06c.19.71-.13,1.14-.87,1.15-.93,0-1.86,0-2.78,0-.48,0-.56.15-.56.58Q36.16,21,36.15,29.42ZM34.62,29q0-8.14,0-16.3c0-.47-.08-.64-.61-.64Q20.19,12,6.34,12c-.45,0-.58.09-.58.55q0,16.34,0,32.66c0,.49.15.59.61.59H34c.5,0,.63-.12.63-.62Q34.61,37.08,34.62,29ZM1.74,10.47H38.65c-.33-1.19-.68-2.33-1-3.49-.12-.45-.28-.62-.78-.62q-16.71,0-33.41,0H3.13a.24.24,0,0,0-.29.21C2.48,7.87,2.11,9.15,1.74,10.47ZM20.19,4.82c1.49,0,3,0,4.48,0,.3,0,.44-.06.43-.39,0-.82,0-1.65,0-2.47,0-.29-.08-.4-.38-.4-3,0-6,0-9,0-.33,0-.4.14-.4.43q0,1.18,0,2.37c0,.36.1.47.46.47C17.24,4.81,18.71,4.82,20.19,4.82Z"/><path d="M19.42,29.32c0-3.8,0-7.6,0-11.4a3,3,0,0,1,0-.67.75.75,0,0,1,1.46,0,2.59,2.59,0,0,1,.05.56V41c0,.68-.27,1-.76,1s-.8-.33-.8-1c0-3.43,0-6.87,0-10.31Z"/><path d="M11.74,29.38V40.94a2.86,2.86,0,0,1,0,.51.73.73,0,0,1-.68.61.69.69,0,0,1-.78-.53,2.48,2.48,0,0,1-.06-.61V17.82a2.69,2.69,0,0,1,0-.57.7.7,0,0,1,.79-.58.74.74,0,0,1,.7.7,3.53,3.53,0,0,1,0,.46Z"/><path d="M28.66,29.33V17.73a1,1,0,0,1,.15-.74.72.72,0,0,1,.76-.31.68.68,0,0,1,.57.53,2.43,2.43,0,0,1,.06.61v23.1a2.75,2.75,0,0,1-.05.57.68.68,0,0,1-.8.56.71.71,0,0,1-.68-.65,3,3,0,0,1,0-.52Z"/></g></g></g></svg>