<svg xmlns="http://www.w3.org/2000/svg" viewBox="0 0 41.07 27.33"><g id="Layer_2" data-name="Layer 2"><g id="Layer_1-2" data-name="Layer 1"><g id="dKiFGk.tif"><path d="M20.51,27.33H1.43a1.54,1.54,0,0,1-1-.2,1.18,1.18,0,0,1-.44-1Q0,19,0,12C0,8.43,0,4.89,0,1.35,0,.32.34,0,1.43,0H39.6c1.18,0,1.47.3,1.47,1.45V25.93c0,1.09-.32,1.4-1.42,1.4ZM1.82,1c.13.13.18.2.24.25L20.25,18.1c.28.26.41.14.62-.05l18-16.7c.1-.09.28-.15.24-.35Zm-.1,25.31H39.27c0-.15-.09-.2-.16-.27q-6-6-11.95-11.95c-.23-.23-.35-.2-.57,0q-2.73,2.55-5.48,5.08c-.51.48-.63.48-1.15,0-1.8-1.66-3.6-3.3-5.38-5-.29-.27-.43-.32-.75,0Q8,20.06,2.13,25.88ZM1,25.54l.24-.21q5.94-5.94,11.88-11.88c.3-.29.17-.41-.06-.63Q7.27,7.47,1.47,2.09C1.35,2,1.26,1.82,1,1.79Zm39-23.83c-.17.14-.27.21-.35.29Q33.83,7.45,27.94,12.88c-.29.27-.21.4,0,.63L39.68,25.2c.1.1.16.26.38.25Z"/></g></g></g></svg>