<?xml version="1.0" encoding="UTF-8"?><svg xmlns="http://www.w3.org/2000/svg" viewBox="0 0 136.47 188.46"><defs><style>.e{fill:#fff;}</style></defs><g id="a"/><g id="b"><g id="c"><g id="d"><path class="e" d="M0,94.19c.22-22.27,6.95-42.26,21.23-59.45C36.35,16.54,55.7,5.35,79,1.36c18.8-3.21,36.97-.72,54.35,7.3,2.06,.95,3.24,2.36,3.12,4.59-.14,2.43-1.73,3.68-3.98,4.15-5.95,1.25-11.86,2.6-17.5,4.97-24.82,10.43-39.58,29.25-45.11,55.24-4.45,20.93-1.42,40.99,9.85,59.37,9.22,15.04,22.47,25.24,39.26,30.77,4.36,1.43,8.81,2.47,13.28,3.44,1.97,.43,3.76,1.01,4.07,3.37,.32,2.49-.94,4.18-3.02,5.24-4.24,2.16-8.66,3.92-13.27,5.08-38.38,9.65-71.14-.33-97.48-29.52C7.13,138.24-.07,117.39,0,94.19Z"/></g></g></g></svg>