<?xml version="1.0" encoding="UTF-8"?><svg xmlns="http://www.w3.org/2000/svg" viewBox="0 0 236.53 236.56"><g id="a"/><g id="b"><g id="c"><g id="d"><g><path d="M118.27,49.11c38.55-.34,70.74,32.28,68.97,72.08-1.61,36.08-31.38,66.68-70.37,65.93-37.16-.71-66.22-30.04-67.51-65.95-1.47-40.89,31.3-72.19,68.91-72.06Z"/><path d="M106.15,45.13c1.75-4.38,3.39-8.62,4.6-13.01,2.63-9.6,3.95-19.39,4.47-29.32,.05-.91-.44-2.14,.81-2.66,1.26-.53,2,.49,2.79,1.18,12.97,11.44,19.15,25.86,18.97,43.1-.02,1.84-.33,2.35-2.38,1.89-9.08-2.05-18.27-2.5-27.52-1.19-.48,.07-.98,0-1.74,0Z"/><path d="M74.77,178.58c-6.8,2.7-13.16,6.07-19.18,10.09-6.1,4.08-11.82,8.64-17.19,13.63-.67,.62-1.26,1.43-2.34,.99-1-.4-.81-1.36-.87-2.16-1.35-17.62,4.48-32.5,17.18-44.72,.71-.68,1.36-1.82,2.39-.09,5.04,8.47,11.55,15.64,19.46,21.52,.19,.14,.29,.38,.55,.73Z"/><path d="M191.7,106.33c6.83,2.9,13.88,5.04,21.16,6.46,6.96,1.35,13.97,2.17,21.05,2.48,.89,.04,1.93-.2,2.44,.83,.58,1.16-.35,1.88-.98,2.6-11.56,13.07-26.06,19.46-43.51,19.07-.89-.02-2.32,.47-1.8-1.59,2.47-9.64,2.63-19.42,1.43-29.25-.02-.14,.1-.29,.21-.6Z"/><path d="M178.57,161.67c2.65,6.53,5.82,12.61,9.61,18.37,4.12,6.27,8.73,12.15,13.81,17.68,.7,.76,1.82,1.49,1.22,2.75-.53,1.11-1.75,.77-2.7,.83-17.34,1.14-31.97-4.7-43.99-17.17-.62-.64-1.99-1.33-.19-2.4,8.41-4.98,15.46-11.5,21.37-19.26,.19-.25,.47-.44,.87-.81Z"/><path d="M130.22,191.62c-3.51,8.24-5.79,16.38-7.18,24.77-.97,5.84-1.62,11.7-1.84,17.61-.03,.9,.17,1.94-.87,2.41-1.03,.46-1.72-.31-2.4-.9-13.28-11.62-19.72-26.25-19.25-43.9,.03-.98-.11-1.95,1.59-1.5,4.84,1.26,9.78,2.07,14.79,2.13,4.9,.05,9.81,.36,15.16-.62Z"/><path d="M161.8,57.84c4.51-1.91,8.94-3.96,13.17-6.44,8.14-4.78,15.61-10.46,22.6-16.79,.76-.69,1.43-1.86,2.7-1.4,1.33,.48,.94,1.79,1.01,2.82,1.09,17.03-4.53,31.49-16.6,43.51-1.43,1.42-2.17,1.93-3.48-.33-4.32-7.41-10.1-13.59-16.81-18.91-.78-.62-1.55-1.25-2.31-1.9-.11-.1-.14-.29-.26-.56Z"/><path d="M46.67,98.87c-2.79,10.17-2.93,20.42-1.75,30.66-.71,.52-1.22,.13-1.72-.08-12.74-5.32-26.12-7.53-39.82-8.23-.33-.02-.66-.03-1-.05-.81-.05-1.72,.13-2.19-.8-.53-1.05,.21-1.75,.79-2.42,4.69-5.51,10.22-9.98,16.66-13.29,8.53-4.38,17.59-6.43,27.18-6.02,.57,.02,1.13,.14,1.85,.24Z"/><path d="M57.86,74.56c-4.21-10.79-10.37-20.42-17.64-29.36-1.99-2.45-4.14-4.77-6.21-7.16-.49-.57-1.02-1.16-.74-2,.31-.9,1.13-.83,1.87-.88,17.54-1.26,32.55,4.14,44.79,16.94,1.35,1.41,1.28,1.94-.45,2.96-7.73,4.59-14.28,10.56-19.83,17.63-.5,.64-.83,1.46-1.79,1.86Z"/></g></g></g></g></svg>